<?xml version="1.0" encoding="UTF-8" standalone="no"?>
<svg xmlns="http://www.w3.org/2000/svg" width="256" height="256" viewBox="0 0 256 256">
  <rect width="256" height="256" fill="#7952B3"/>
  <path fill="#FFF" d="M131.97,196.57h-19.9v-95.86h19.9V196.57z M115.45,82.54c0-3.84,1.4-7.09,4.2-9.75c2.8-2.66,6.58-3.99,11.35-3.99c4.7,0,8.44,1.33,11.22,3.99c2.78,2.66,4.17,5.91,4.17,9.75c0,3.91-1.39,7.2-4.17,9.85c-2.78,2.66-6.52,3.99-11.22,3.99c-4.77,0-8.55-1.33-11.35-3.99C116.85,89.74,115.45,86.45,115.45,82.54z M209.12,145.31c0,7.82-1.88,14.69-5.63,20.62c-3.75,5.92-8.95,10.55-15.6,13.87c-6.65,3.32-14.29,4.98-22.92,4.98c-8.48,0-15.9-1.63-22.27-4.88c-6.37-3.25-11.3-7.87-14.78-13.87c-3.49-5.99-5.23-13.02-5.23-21.08v-44.24h19.9v43.79c0,6.45,1.9,11.53,5.7,15.24c3.8,3.71,9.04,5.56,15.73,5.56c4.3,0,8.09-0.94,11.35-2.82c3.26-1.88,5.81-4.56,7.63-8.05c1.83-3.49,2.74-7.58,2.74-12.29v-41.44h19.9V145.31z M66.19,108.56H40.62v-18.44h76.89v18.44H91.94v87.59H66.19V108.56z"/>
</svg>
